<svg id="Layer_1" data-name="Layer 1" xmlns="http://www.w3.org/2000/svg" viewBox="0 0 30 30"><defs><style>.cls-1{fill:#74b9af;}</style></defs><title>instagram-icon</title><path class="cls-1" d="M26.25,0H3.75A3.78,3.78,0,0,0,0,3.75v22.5A3.78,3.78,0,0,0,3.75,30h22.5A3.78,3.78,0,0,0,30,26.25V3.75A3.78,3.78,0,0,0,26.25,0ZM15,8.95a6,6,0,1,1-6.05,6A6,6,0,0,1,15,8.95ZM26.45,25a1.47,1.47,0,0,1-1.5,1.5H5.25A1.47,1.47,0,0,1,3.75,25V12.3H6A9.88,9.88,0,0,0,5.65,15a9.35,9.35,0,1,0,18.7,0,10.16,10.16,0,0,0-.4-2.75h2.5Zm0-17.7a1.47,1.47,0,0,1-1.5,1.5H22.7a1.47,1.47,0,0,1-1.5-1.5V4.85a1.47,1.47,0,0,1,1.5-1.5h2.25a1.47,1.47,0,0,1,1.5,1.5Z"/></svg>